<svg xmlns="http://www.w3.org/2000/svg" viewBox="0 0 729.54 134.58"><defs><style>.cls-1{font-size:82.53px;font-family:Avenir-Heavy, Avenir;font-weight:800;}.cls-2{letter-spacing:-0.11em;}.cls-3{letter-spacing:-0.07em;}.cls-4{fill:#ed1c24;}.cls-5{fill:#010001;}.cls-10,.cls-11,.cls-12,.cls-13,.cls-14,.cls-15,.cls-16,.cls-17,.cls-18,.cls-19,.cls-20,.cls-21,.cls-22,.cls-23,.cls-24,.cls-25,.cls-26,.cls-27,.cls-5,.cls-6,.cls-7,.cls-8,.cls-9{fill-rule:evenodd;}.cls-6{fill:#cec7b4;}.cls-7{fill:#727168;}.cls-8{fill:#3e4149;}.cls-9{fill:#585c67;}.cls-10{fill:#d2ddd7;}.cls-11{fill:#938e80;}.cls-12{fill:#928e7f;}.cls-13{fill:#010102;}.cls-14{fill:#938d80;}.cls-15{fill:#928d80;}.cls-16{fill:#070606;}.cls-17{fill:#020202;}.cls-18{fill:#030303;}.cls-19{fill:#040303;}.cls-20{fill:#040404;}.cls-21{fill:#050404;}.cls-22{fill:#060606;}.cls-23{fill:#050504;}.cls-24{fill:#030203;}.cls-25{fill:#060505;}.cls-26{fill:#070706;}.cls-27{fill:#3f8bab;}</style></defs><g id="Objects"><text class="cls-1" transform="translate(141.22 98.76) scale(0.89 1)"><tspan class="cls-2">T</tspan><tspan x="38.21" y="0">echie</tspan><tspan class="cls-3" x="241.58" y="0">’</tspan><tspan x="259.9" y="0">s </tspan><tspan class="cls-4" x="320.97" y="0">Meetups</tspan></text><path class="cls-5" d="M72.75,47.22c8.43-.22,15.43-.4,22.41.28s13.91,1.41,20.87,2.15a11.88,11.88,0,0,1,2.09.47,3.44,3.44,0,0,1,2.76,3.11c1.33,7.11,3,14.15,4.61,21.21,1.41,6.24,3.18,12.39,4.84,18.56a20.77,20.77,0,0,1,.42,9c-.66,3.78-.78,7.61-1.13,11.43a24.13,24.13,0,0,1-1.52,6.35,3,3,0,0,1-3,1.83c-4.89.19-9.78.17-14.67,0s-9.84-.38-14.77-.55c-5.81-.21-11.62-.36-17.44-.18-4.68.15-9.35-.18-14-.19-5.4,0-10.78.44-16.17.55-7.76.14-15.5.82-23.26.61-6.06-.16-12.12-.33-18.17-.55-3.61-.13-6.3-2.34-6.4-5.88A169,169,0,0,1,.57,93.69a67,67,0,0,1,3.92-16c2.54-7,4.9-14.13,7.37-21.19.5-1.42,1.19-2.78,1.73-4.19,1.05-2.71,3.08-3.86,5.9-4.19a110.85,110.85,0,0,1,13-.64c1.11,0,1.43-.29,1.35-1.42-.15-2.27-.18-4.55-.19-6.83a1.79,1.79,0,0,0-1.19-1.88c-6.19-2.19-9.12-7.22-11-13-2.53-7.78.45-14.1,6.1-19.26A17.92,17.92,0,0,1,46.13,1C52.69,3.13,57.52,9.69,58,16.61c.26,4.22-.07,8.32-2.33,12.05a17.27,17.27,0,0,1-4.13,4.56,8,8,0,0,0-3.14,8.26,27.46,27.46,0,0,1,.2,3.15c.08,1.56.59,2.07,2.14,2.22A131.08,131.08,0,0,0,72.75,47.22Z"/><path class="cls-6" d="M57.56,76.33c2.49-2.7,3.5-5.75,2.44-9.41a6.66,6.66,0,0,0-4.19-4.53,18,18,0,0,0-5.55-1.13c-.64,0-.87-.24-.88-.9,0-3.16-.06-6.33-.18-9.49,0-1.13.76-1,1.34-1,2.65-.18,5.3-.33,8-.43,8.34-.3,16.69-.64,25-.2s16.66,1,25,1.48c2.15.13,4.29.29,6.44.41,2.52.15,3.63,1,4.45,3.35a72.46,72.46,0,0,1,2.94,12.13c1.31,8,3.44,15.79,5.47,23.61.53,2.08,1,4.19,1.53,6.26a1.14,1.14,0,0,1-.66,1.51,13.86,13.86,0,0,1-6.78,1.69c-8.31.23-16.61-.12-24.92-.08q-10.87,0-21.74-.14c-7.62-.12-15.25-.37-22.87-.55-2.28,0-4.5.62-6.78.72-3.5.15-7,0-10.48-.16-5.14-.24-10.28-.4-15.41-.71-4.5-.27-9-.67-13.48-1.07C3.92,97.48,3,96.32,2.64,94c-.46-3.26.55-6.29,1.41-9.29A287.92,287.92,0,0,1,13.91,56a11.12,11.12,0,0,1,1.69-2.8,5.59,5.59,0,0,1,4.58-2.26c4,0,7.93-.13,11.9-.26,1.19-.05,1.64.29,1.61,1.55,0,2.36,0,4.72.12,7.08A2.63,2.63,0,0,1,32.31,62c-2.52,1.39-4.31,3.61-6.12,5.78-1.9,1.52-3.63,3.16-4.11,5.7a13.23,13.23,0,0,0,0,4.9,5.49,5.49,0,0,0,4.15,4.49,46.16,46.16,0,0,0,17.62,1.56c1.8-.21,3.56-.59,5.34-.92a8.62,8.62,0,0,0,4.5-2.15C55.23,79.87,57.06,78.6,57.56,76.33Z"/><path class="cls-7" d="M32.87,119.05c-7,.16-12.7.67-18.4.53-3-.08-6-.35-8.94-.63-1.83-.18-3.11-1.88-3.49-4.43A19.68,19.68,0,0,1,1.91,111c0-.86.36-1,1.14-1,4.47,0,8.94,0,13.41.06,5.39,0,10.79.11,16.19.18,7.37.1,14.75.31,22.12.27,3.53,0,7.06-.48,10.61-.36q11.87.39,23.75.73c3.72.12,7.42-.39,11.13-.37,8.76,0,17.53.2,26.3.28.93,0,1.3.27,1.34,1.3a17.73,17.73,0,0,1-1.25,6.65c-.46,1.3-1.54,1.6-2.72,1.66a160.59,160.59,0,0,1-16.42,0c-8.5-.42-17-1.11-25.51-1-10.33.09-20.65-.19-31-.15C44.52,119.15,38,119.07,32.87,119.05Z"/><path class="cls-7" d="M105.57,109.36c-6.37-.18-12.73.07-19.1,0a138.31,138.31,0,0,1-20.53-1.28c-1.38-.21-2.66.34-4,.53a75.62,75.62,0,0,1-12.49.42c-5.4-.14-10.79-.12-16.19-.19-8.51-.12-17-.33-25.52-.5-1.56,0-3.12,0-4.68-.13-.87-.09-1.38-.49-1.38-1.32,0-2.52.07-5.05.11-7.58,0-.79.55-.58,1-.5A65.75,65.75,0,0,0,12.06,100c4.54.24,9.09.45,13.63.7,6.23.34,12.47.28,18.71.35,1.77,0,3.54-.19,5.3-.2,14.43-.1,28.85.07,43.27,0,9.56,0,19.13.2,28.69.23a29.91,29.91,0,0,0,6.22-.89c.94-.19,1,.11,1.08.9.22,2.13-.31,4.19-.5,6.28a1.87,1.87,0,0,1-1.54,1.65,13.83,13.83,0,0,1-3.51.32l-17.83.33C105.58,109.57,105.57,109.47,105.57,109.36Z"/><path class="cls-8" d="M55.67,16.32a17,17,0,0,1-5.92,15.79c-3.78,3.37-8.23,4.46-13.06,4.27a13.08,13.08,0,0,1-9.4-4.83,17.38,17.38,0,0,1-4.75-12.78,16,16,0,0,1,5.37-11.3c.53.57.37,1.28.37,1.93,0,5.18,2.64,8.91,6.64,11.84a8.27,8.27,0,0,0,4.19,1.24,13.86,13.86,0,0,0,9.21-1.87,73.41,73.41,0,0,0,6.54-4.06A.81.81,0,0,1,55.67,16.32Z"/><path class="cls-9" d="M55.67,16.32a31.28,31.28,0,0,1-9.93,5.84c-7.25,2.25-12.94.33-16.67-7.32C27.9,12.45,28,10,27.91,7.47c4.66-4.1,10-6.27,16.15-4.56S54,9,55.55,15.19A8.31,8.31,0,0,1,55.67,16.32Z"/><path class="cls-10" d="M41.69,79.4a35.7,35.7,0,0,1-9.06-.85,13,13,0,0,1-4.5-2.22c-1.54-1.13-2.19-4.11-1.28-6.4a10.45,10.45,0,0,1,5.77-6.05c1-.42,1.27-.17,1.19.88a1.91,1.91,0,0,1-.63,1.2c-.27.27-.57.51-.84.77C30,68.9,30.29,71.29,33,72.92a11.53,11.53,0,0,0,5.5,1.65,35.57,35.57,0,0,0,11-1.19,4.89,4.89,0,0,0,3.31-2.51c.86-1.67.4-2.81-1.48-3.74-1.69-.83-1.9-1.23-1.59-2.78.09-.4.21-.67.67-.79,3-.74,7.53,1.86,8.09,4.78a7.18,7.18,0,0,1-2,6.5A13.6,13.6,0,0,1,47.06,79Z"/><path class="cls-8" d="M43.07,72a13.27,13.27,0,0,1-6,0c-1-.23-1.19-1.06-1.22-2-.16-4.09,0-8.17.06-12.25,0-6,.13-12-.11-18.07,0-.89.14-1.26,1.14-1.31,2.68-.13,5.36-.37,8-.64,1-.09,1.27.21,1.25,1.16,0,1.72.43,3.43.28,5.16a4.53,4.53,0,0,1-2,1c-2.08.83-2.49,1.56-2.59,3.78-.18,4.28-.21,8.57-.65,12.83-.26,2.47.11,5-.12,7.44,0,.12,0,.25,0,.37,0,.63-.31,1.35-.09,1.87s1.14,0,1.68.38A1.61,1.61,0,0,1,43.07,72Z"/><path class="cls-9" d="M43.07,72c-.79-.14-1.84.37-2.28-.2s0-1.44,0-2.18c.09-2.13-.07-4.26,0-6.39.19-4.38.48-8.76.72-13.14a7.57,7.57,0,0,0,0-1.26c-.27-2.46.51-3,2.59-4a17.26,17.26,0,0,1,2.37-.77c.29,5.39.52,10.77.89,16.15.22,3.11.32,6.22.37,9.34,0,1.54-.31,1.93-1.84,2.14C45,71.86,44,71.94,43.07,72Z"/><path class="cls-11" d="M57.56,76.33a1.25,1.25,0,0,1-.2,1.63c-2,2.46-4,4.87-7.32,5.7a47.3,47.3,0,0,1-23.43-.3,6.4,6.4,0,0,1-5-6.42,14.56,14.56,0,0,1,.23-4c.75-2.31,2-4.25,4.37-5.19C22.84,74,26,80,33.18,80.83a54.58,54.58,0,0,0,16.34-.3A15.78,15.78,0,0,0,57.56,76.33Z"/><path class="cls-12" d="M114.86,70.47a2.22,2.22,0,0,1,1.87,2.2,60.15,60.15,0,0,1,.8,6.24c.08,2.36,1,4.49,1.42,6.76.26,1.58.37,3.17.65,4.74.52,2.94-2.46,4.59-4.73,4.29a41.84,41.84,0,0,0-10.66-.48,29.81,29.81,0,0,1-5.16.27c-4.79-.25-9.56-.59-14.34-.91-1.76-.12-3.52-.25-5.28-.4a3.24,3.24,0,0,1-2.59-2,12.44,12.44,0,0,1-1.16-7.94A54.7,54.7,0,0,0,76.25,77c.07-2.35.71-4.65.45-7-.1-1,.8-1.4,1.65-1.63a10.28,10.28,0,0,1,4.87,0,16.61,16.61,0,0,0,4.19.4,105.23,105.23,0,0,1,20.53.76,50.31,50.31,0,0,1,5.46.7.69.69,0,0,1-.39.46c-.42.23-.89.49-.45,1a1,1,0,0,0,1.54.19C114.59,71.52,114.53,70.9,114.86,70.47Z"/><path class="cls-13" d="M75.32,55.18a5.9,5.9,0,0,1,5.35-4.11,23.2,23.2,0,0,1,6.65.32A3.41,3.41,0,0,1,88.05,58c-.31.13-.63.23-.94.34a9.13,9.13,0,0,1-10-.11A6,6,0,0,1,75.69,57,1.54,1.54,0,0,1,75.32,55.18Z"/><path class="cls-13" d="M99.65,55A3.18,3.18,0,0,1,102,52.65a15,15,0,0,1,10.6.42c1.89.72,2.32,3.29,1,5.19a5.61,5.61,0,0,1-3.46,2.14c-2.36,1.23-8.82.44-10.17-2.51A3.34,3.34,0,0,1,99.65,55Z"/><path class="cls-14" d="M75.32,55.18A2.28,2.28,0,0,0,76,56.87c2.22,2,4.75,3.06,7.8,2.29l3.27-.84c0,2-2.41,4.36-4.84,4.6a9.81,9.81,0,0,1-7.22-2A3.62,3.62,0,0,1,75.32,55.18Z"/><path class="cls-15" d="M99.65,55c-.23,3.63,3,5.24,5.65,5.46a27.44,27.44,0,0,0,4.88-.06c.15,1.75-1.29,2.56-2.6,2.74a10.76,10.76,0,0,1-8.83-2.37,3.45,3.45,0,0,1,.08-5C99.11,55.52,99.38,55.25,99.65,55Z"/><path class="cls-16" d="M114.86,70.47c.42,1-.27,1.4-.89,1.93s-.91,0-1.31-.2-.82-.48-.71-1a1,1,0,0,1,1-.81,2.9,2.9,0,0,0,.47-.16Z"/><path class="cls-17" d="M91.12,84.59A11,11,0,0,1,90,84.52c-.66-.12-1.45-.19-1.43-1.1s.74-1,1.35-1a3.67,3.67,0,0,1,2.46.2c.44.26,1,.45.85,1.09s-.56.79-1.1.86C91.76,84.56,91.38,84.57,91.12,84.59Z"/><path class="cls-18" d="M91.22,69.75a4.38,4.38,0,0,1-1.93,1.52,1.48,1.48,0,0,1-2-.52c-.35-.55-.41-1,.42-1.37A3.28,3.28,0,0,1,91.22,69.75Z"/><path class="cls-18" d="M89.41,77.56c-1-.08-1.67.06-2.07-.69-.25-.46,0-.81.26-1.14a1.57,1.57,0,0,1,2-.42c.61.26,1.66.46,1.51,1.19A1.5,1.5,0,0,1,89.41,77.56Z"/><path class="cls-19" d="M91.35,92.07c-.59-.09-1.33-.17-1.31-1s.71-1.31,1.53-1.35a2.4,2.4,0,0,1,2.18,1C94,91.09,92.33,92,91.35,92.07Z"/><path class="cls-18" d="M97.59,69.48c1,0,2.24.89,2,1.45-.25.74-1,.89-1.66.85-.89,0-1.8-.25-1.78-1.34C96.22,69.59,97,69.45,97.59,69.48Z"/><path class="cls-20" d="M81.39,71c-1.15,0-2-.69-1.83-1.37.23-.86,1-.92,1.73-.85a.86.86,0,0,1,.36.08c.47.27,1.48,0,1.38.75A1.68,1.68,0,0,1,81.39,71Z"/><path class="cls-21" d="M101.24,90.26c.64.33,1.8.14,1.73,1.09s-1.16,1-2,1.1c-.57,0-1.33.07-1.29-.78S100.44,90.44,101.24,90.26Z"/><path class="cls-22" d="M106.53,77.82a5.12,5.12,0,0,1-1.87.63c-.46.11-1.14.62-1.35.16a2.08,2.08,0,0,1,.37-2c.45-.6,1-.32,1.56,0A3.5,3.5,0,0,1,106.53,77.82Z"/><path class="cls-20" d="M80.51,84.84c-.84,0-1.6-.6-1.55-1.32s1.13-.73,1.81-.82,1.42.18,1.39.89S81.37,84.79,80.51,84.84Z"/><path class="cls-23" d="M99.27,85.13c-.8-.16-1.59-.36-1.6-1.41,0-.43,0-.94.67-.93,1.1,0,2.51.76,2.38,1.3S99.94,85,99.27,85.13Z"/><path class="cls-24" d="M97.91,78.19c-.76-.08-1.43-.31-1.39-1.16s.7-1.13,1.41-1.12,1.62.21,1.59,1S98.68,78.11,97.91,78.19Z"/><path class="cls-25" d="M105.46,72.29c-.88,0-1.36-.36-1.33-1,0-.82.7-1.07,1.44-1.08.89,0,1.58.49,1.54,1.31C107.05,72.66,105.8,71.76,105.46,72.29Z"/><path class="cls-26" d="M80.6,75.67c.45.27,1.39-.26,1.69.57.21.58-.85,1.7-1.45,1.58s-1.5.11-1.46-.94C79.4,76.21,79.57,75.6,80.6,75.67Z"/><path class="cls-20" d="M81.6,90.23a1.41,1.41,0,0,1-.81,1.23,1.75,1.75,0,0,1-2.24-1.89c0-.09.16-.23.24-.22a10.27,10.27,0,0,1,2.68.58C81.54,90,81.56,90.14,81.6,90.23Z"/><path class="cls-20" d="M106.71,83.19c.63.14,1.39.38,1.44,1,.06.85-.87.91-1.48,1a1.1,1.1,0,0,1-1.27-1.09C105.38,83.57,106.13,83.35,106.71,83.19Z"/><path class="cls-22" d="M115.49,77.44c-.5.51-.9,1.28-1.59,1.32a1.26,1.26,0,0,1-1.11-1.17c0-.64.73-1,1.38-1A1.79,1.79,0,0,1,115.49,77.44Z"/><path class="cls-25" d="M114.2,85.38c-.33-.13-1,.22-1-.55,0-.61,1.11-1.47,1.85-1.45s.51.57.51.93C115.57,85.14,115.22,85.39,114.2,85.38Z"/><path class="cls-16" d="M109,93.26c-.86,0-1.09-.53-1.16-1.12-.1-.94.75-.7,1.23-.82.83-.21,1,.47,1.09,1C110.32,93.33,109.34,92.91,109,93.26Z"/><path class="cls-23" d="M117.38,92c-.2.5-.49,1.17-1,1.12a1.4,1.4,0,0,1-1.24-1.37c0-.59.45-.88,1-.84A1.2,1.2,0,0,1,117.38,92Z"/><path class="cls-27" d="M82.92,56.84a9,9,0,0,1-4.68-1.1c-.38-.19-.77-.39-.77-.89a1.18,1.18,0,0,1,.8-1.17c1.4-.52,2.73-1.32,4.33-.48.74.39,1.65,0,2.49,0a4.52,4.52,0,0,1,2.59.82c.68.52.86.95-.05,1.46A9.21,9.21,0,0,1,82.92,56.84Z"/><path class="cls-27" d="M106.78,53.63a7.71,7.71,0,0,1,4.47,1.19c.51.36,1.08.79,1,1.5a2,2,0,0,1-1.41,1.49,11.45,11.45,0,0,1-6.09.22,3.28,3.28,0,0,1-2.51-1.21c-.83-1.17-.52-2.19.85-2.63a5.58,5.58,0,0,1,1-.23C105,53.83,106,53.72,106.78,53.63Z"/></g></svg>